# Blender v2.92.0 OBJ File: 'board.blend'
# www.blender.org
mtllib board.mtl
o Cube_Cube.002
v 1.224811 0.088020 -1.189733
v 1.224811 -0.119382 -1.189733
v 1.224811 -0.119382 -3.165148
v 1.224811 0.088020 -3.165148
v -1.253885 0.088020 1.022671
v -1.253885 -0.119382 1.022671
v -3.296727 0.088020 1.022671
v -3.296727 -0.119382 1.022671
v 1.018253 0.088020 -0.988605
v 1.018253 -0.119382 -0.988605
v 1.018253 0.088020 1.022671
v 1.018253 -0.119382 1.022671
v -1.253885 0.088020 -0.988605
v -1.253885 -0.119382 -0.988605
v -1.047327 0.088020 1.022671
v -1.047327 -0.119382 1.022671
v -3.296727 0.088020 -1.189732
v -3.296727 -0.119382 -1.189732
v 3.268413 -0.119382 -1.189733
v 3.268413 0.088020 -1.189733
v -1.047327 0.088020 -0.988605
v -1.047327 -0.119382 -0.988605
v 1.018253 0.088020 3.220806
v 1.018253 -0.119382 3.220806
v 1.018253 0.088020 1.223800
v 1.018253 -0.119382 1.223800
v -1.047327 0.088020 1.223800
v -1.047327 -0.119382 1.223800
v -1.253885 -0.119382 -3.165148
v -1.253885 0.088020 -3.165148
v -1.253885 0.088020 -1.189733
v -1.253885 -0.119382 -1.189733
v -3.296727 0.088020 -0.988605
v -3.296727 -0.119382 -0.988605
v 1.018253 0.088020 -1.189733
v 1.018253 -0.119382 -1.189733
v 1.018253 -0.119382 -3.165148
v 1.018253 0.088020 -3.165148
v -1.047327 0.088020 -1.189733
v -1.047327 -0.119382 -1.189733
v -1.047327 -0.119382 -3.165148
v -1.047327 0.088020 -3.165148
v 1.224811 0.088020 -0.988605
v 1.224811 -0.119382 -0.988605
v -1.253885 0.088020 1.223800
v -1.253885 -0.119382 1.223800
v 3.268413 -0.119382 1.223800
v 3.268413 0.088020 1.223800
v 1.224811 0.088020 1.022671
v 1.224811 -0.119382 1.022671
v -3.296727 0.088020 1.223800
v -3.296727 -0.119382 1.223800
v 1.224811 0.088020 1.223800
v 1.224811 -0.119382 1.223800
v 3.268413 -0.119382 1.022671
v 3.268413 0.088020 1.022671
v 1.224811 0.088020 3.220806
v 1.224811 -0.119382 3.220806
v 3.268413 -0.119382 -0.988604
v 3.268413 0.088020 -0.988604
v -1.047327 0.088020 3.220806
v -1.047327 -0.119382 3.220806
v -1.253885 0.088020 3.220806
v -1.253885 -0.119382 3.220806
vt 0.000000 1.000000
vt 0.000000 0.007095
vt 0.000000 1.000000
vt 0.000000 0.000000
vt 0.989360 0.000000
vt 0.000000 0.000000
vt 0.000000 0.000000
vt 0.000000 0.982170
vt 0.000000 0.000000
vt 1.000000 0.000000
vt 1.000000 0.982170
vt 1.000000 0.000000
vt 1.000000 0.000000
vt 1.000000 0.982170
vt 1.000000 0.000000
vt 0.000000 1.000000
vt 0.989360 1.000000
vt 0.000000 1.000000
vt 1.000000 1.000000
vt 0.000000 1.000000
vt 1.000000 1.000000
vt 0.000000 0.000000
vt 0.989360 0.000000
vt 0.000000 0.000000
vt 0.625000 0.078180
vt 0.375000 0.086053
vt 0.375000 0.078180
vt 0.625000 0.164792
vt 0.375000 0.172666
vt 0.375000 0.164792
vt 0.000000 1.000000
vt 0.000000 0.007095
vt 0.000000 1.000000
vt 0.011008 0.000000
vt 0.625000 0.827820
vt 0.375000 0.835686
vt 0.375000 0.827820
vt 0.625000 0.914343
vt 0.375000 0.922209
vt 0.375000 0.914343
vt 0.625000 0.327791
vt 0.375000 0.335657
vt 0.375000 0.327791
vt 0.625000 0.414314
vt 0.375000 0.422180
vt 0.375000 0.414314
vt 0.797209 0.577334
vt 0.797209 0.585208
vt 0.789343 0.585208
vt 0.797209 0.663947
vt 0.797209 0.671820
vt 0.789343 0.671820
vt 1.000000 0.000000
vt 1.000000 0.000000
vt 0.625000 0.577334
vt 0.375000 0.585208
vt 0.375000 0.577334
vt 0.625000 0.663947
vt 0.375000 0.671820
vt 0.375000 0.663947
vt 0.297180 0.577334
vt 0.297180 0.585208
vt 0.289314 0.585208
vt 0.297180 0.663947
vt 0.297180 0.671820
vt 0.289314 0.671820
vt 1.000000 1.000000
vt 0.011008 1.000000
vt 1.000000 1.000000
vt 1.000000 0.000000
vt 0.011008 0.000000
vt 1.000000 0.000000
vt 0.000000 0.982170
vt 1.000000 1.000000
vt 1.000000 1.000000
vt 0.000000 1.000000
vt 0.000000 0.000000
vt 1.000000 1.000000
vt 1.000000 0.007095
vt 0.000000 0.000000
vt 1.000000 0.007095
vt 0.989360 1.000000
vt 1.000000 1.000000
vt 0.011008 1.000000
vt 0.000000 0.007095
vt 0.989360 0.000000
vt 0.000000 0.982170
vt 1.000000 0.982170
vt 1.000000 0.982170
vt 0.989359 1.000000
vt 0.989360 0.000000
vt 0.625000 0.086053
vt 0.625000 0.172666
vt 0.000000 0.007095
vt 0.011008 0.000000
vt 0.625000 0.835686
vt 0.625000 0.922209
vt 0.625000 0.335657
vt 0.625000 0.422180
vt 0.625000 0.585208
vt 0.702820 0.577334
vt 0.702820 0.500000
vt 0.710686 0.500000
vt 0.710686 0.577334
vt 0.702820 0.585208
vt 0.710686 0.585208
vt 0.789343 0.577334
vt 0.789343 0.500000
vt 0.797209 0.500000
vt 0.789343 0.663947
vt 0.875000 0.577334
vt 0.875000 0.585208
vt 0.625000 0.671820
vt 0.702820 0.663947
vt 0.710686 0.663947
vt 0.710686 0.671820
vt 0.702820 0.671820
vt 0.710686 0.750000
vt 0.702820 0.750000
vt 0.875000 0.663947
vt 0.875000 0.671820
vt 0.797209 0.750000
vt 0.789343 0.750000
vt 0.125000 0.585208
vt 0.125000 0.577334
vt 0.202791 0.577334
vt 0.202791 0.500000
vt 0.210657 0.500000
vt 0.210657 0.577334
vt 0.202791 0.585208
vt 0.210657 0.585208
vt 0.289314 0.577334
vt 0.289314 0.500000
vt 0.297180 0.500000
vt 0.289314 0.663946
vt 0.125000 0.671820
vt 0.125000 0.663947
vt 0.202791 0.663947
vt 0.210657 0.663947
vt 0.210657 0.671820
vt 0.202791 0.671820
vt 0.210657 0.750000
vt 0.202791 0.750000
vt 0.297180 0.750000
vt 0.289314 0.750000
vt 0.011008 1.000000
vt 0.011008 0.000000
vt 0.000000 0.982170
vt 1.000000 0.007095
vt 1.000000 0.007095
vt 0.989359 1.000000
vt 0.011008 1.000000
vn -1.0000 0.0000 0.0000
vn 0.0000 0.0000 1.0000
vn 1.0000 0.0000 -0.0000
vn 0.0000 0.0000 -1.0000
vn 0.0000 1.0000 0.0000
vn 0.0000 -1.0000 0.0000
usemtl None
s off
f 28/1/1 61/2/1 27/3/1
f 50/4/2 56/5/2 49/6/2
f 39/7/1 41/8/1 40/9/1
f 36/10/3 38/11/3 35/12/3
f 32/13/3 30/14/3 31/15/3
f 43/16/4 59/17/4 44/18/4
f 10/19/4 21/20/4 9/21/4
f 2/22/2 20/23/2 1/24/2
f 51/25/1 8/26/1 52/27/1
f 33/28/1 18/29/1 34/30/1
f 54/31/1 57/32/1 53/33/1
f 31/15/2 18/34/2 32/13/2
f 57/35/2 24/36/2 58/37/2
f 61/38/2 64/39/2 62/40/2
f 30/41/4 41/42/4 29/43/4
f 38/44/4 3/45/4 37/46/4
f 31/47/5 13/48/5 21/49/5
f 5/50/5 45/51/5 27/52/5
f 12/53/3 9/21/3 11/54/3
f 20/55/3 59/56/3 19/57/3
f 56/58/3 47/59/3 55/60/3
f 2/61/6 44/62/6 10/63/6
f 50/64/6 54/65/6 26/66/6
f 44/18/1 49/6/1 43/16/1
f 46/67/4 51/68/4 45/69/4
f 5/70/2 8/71/2 6/72/2
f 40/9/2 35/12/2 39/7/2
f 1/24/1 3/73/1 2/22/1
f 26/74/4 27/3/4 25/75/4
f 22/76/1 15/77/1 21/20/1
f 6/72/3 13/78/3 5/70/3
f 25/75/3 24/79/3 26/74/3
f 16/80/2 11/54/2 15/77/2
f 45/69/3 64/81/3 46/67/3
f 53/33/4 47/82/4 54/31/4
f 14/83/4 33/84/4 13/78/4
f 28/1/1 62/85/1 61/2/1
f 50/4/2 55/86/2 56/5/2
f 39/7/1 42/87/1 41/8/1
f 36/10/3 37/88/3 38/11/3
f 32/13/3 29/89/3 30/14/3
f 43/16/4 60/90/4 59/17/4
f 10/19/4 22/76/4 21/20/4
f 2/22/2 19/91/2 20/23/2
f 51/25/1 7/92/1 8/26/1
f 33/28/1 17/93/1 18/29/1
f 54/31/1 58/94/1 57/32/1
f 31/15/2 17/95/2 18/34/2
f 57/35/2 23/96/2 24/36/2
f 61/38/2 63/97/2 64/39/2
f 30/41/4 42/98/4 41/42/4
f 38/44/4 4/99/4 3/45/4
f 60/100/5 20/55/5 1/101/5
f 1/101/5 4/102/5 38/103/5
f 1/101/5 38/103/5 35/104/5
f 43/105/5 60/100/5 1/101/5
f 21/49/5 9/106/5 39/107/5
f 9/106/5 43/105/5 35/104/5
f 39/107/5 9/106/5 35/104/5
f 43/105/5 1/101/5 35/104/5
f 39/107/5 42/108/5 30/109/5
f 5/50/5 15/110/5 21/49/5
f 39/107/5 30/109/5 31/47/5
f 31/47/5 17/111/5 33/112/5
f 13/48/5 5/50/5 21/49/5
f 31/47/5 33/112/5 13/48/5
f 21/49/5 39/107/5 31/47/5
f 48/113/5 56/58/5 49/114/5
f 49/114/5 43/105/5 9/106/5
f 11/115/5 15/110/5 25/116/5
f 15/110/5 5/50/5 27/52/5
f 11/115/5 25/116/5 53/117/5
f 49/114/5 9/106/5 11/115/5
f 53/117/5 48/113/5 49/114/5
f 23/118/5 57/119/5 53/117/5
f 25/116/5 23/118/5 53/117/5
f 53/117/5 49/114/5 11/115/5
f 5/50/5 7/120/5 51/121/5
f 25/116/5 15/110/5 27/52/5
f 5/50/5 51/121/5 45/51/5
f 45/51/5 63/122/5 27/52/5
f 63/122/5 61/123/5 27/52/5
f 12/53/3 10/19/3 9/21/3
f 20/55/3 60/100/3 59/56/3
f 56/58/3 48/113/3 47/59/3
f 34/124/6 18/125/6 32/126/6
f 32/126/6 29/127/6 41/128/6
f 32/126/6 41/128/6 40/129/6
f 14/130/6 34/124/6 32/126/6
f 10/63/6 22/131/6 36/132/6
f 22/131/6 14/130/6 40/129/6
f 36/132/6 22/131/6 40/129/6
f 14/130/6 32/126/6 40/129/6
f 36/132/6 37/133/6 3/134/6
f 50/64/6 12/135/6 10/63/6
f 36/132/6 3/134/6 2/61/6
f 2/61/6 19/57/6 59/56/6
f 44/62/6 50/64/6 10/63/6
f 2/61/6 59/56/6 44/62/6
f 10/63/6 36/132/6 2/61/6
f 52/136/6 8/137/6 6/138/6
f 6/138/6 14/130/6 22/131/6
f 16/139/6 12/135/6 28/140/6
f 12/135/6 50/64/6 26/66/6
f 16/139/6 28/140/6 46/141/6
f 6/138/6 22/131/6 16/139/6
f 46/141/6 52/136/6 6/138/6
f 62/142/6 64/143/6 28/140/6
f 64/143/6 46/141/6 28/140/6
f 46/141/6 6/138/6 16/139/6
f 50/64/6 55/60/6 47/59/6
f 28/140/6 12/135/6 26/66/6
f 50/64/6 47/59/6 54/65/6
f 54/65/6 58/144/6 24/145/6
f 54/65/6 24/145/6 26/66/6
f 44/18/1 50/4/1 49/6/1
f 46/67/4 52/146/4 51/68/4
f 5/70/2 7/147/2 8/71/2
f 40/9/2 36/10/2 35/12/2
f 1/24/1 4/148/1 3/73/1
f 26/74/4 28/1/4 27/3/4
f 22/76/1 16/80/1 15/77/1
f 6/72/3 14/83/3 13/78/3
f 25/75/3 23/149/3 24/79/3
f 16/80/2 12/53/2 11/54/2
f 45/69/3 63/150/3 64/81/3
f 53/33/4 48/151/4 47/82/4
f 14/83/4 34/152/4 33/84/4
